<mxfile host="app.diagrams.net" modified="2022-06-28T07:25:39.894Z" agent="5.0 (Windows NT 10.0; Win64; x64) AppleWebKit/537.36 (KHTML, like Gecko) Chrome/103.0.0.0 Safari/537.36" etag="UvEF0feLpWS4WixFL6lA" version="20.0.3" type="github">
  <diagram id="WoUSKYyLAS6QP5xmDLaz" name="Page-1">
    <mxGraphModel dx="1136" dy="752" grid="1" gridSize="10" guides="1" tooltips="1" connect="1" arrows="1" fold="1" page="1" pageScale="1" pageWidth="827" pageHeight="1169" math="0" shadow="0">
      <root>
        <mxCell id="0" />
        <mxCell id="1" parent="0" />
        <mxCell id="NI60vL5AaP7EO7W3eIKq-2" value="서버" style="rounded=0;whiteSpace=wrap;html=1;" parent="1" vertex="1">
          <mxGeometry x="20" y="20" width="120" height="60" as="geometry" />
        </mxCell>
        <mxCell id="NI60vL5AaP7EO7W3eIKq-3" value="클라이언트" style="rounded=0;whiteSpace=wrap;html=1;" parent="1" vertex="1">
          <mxGeometry x="1520" y="20" width="120" height="60" as="geometry" />
        </mxCell>
        <mxCell id="NI60vL5AaP7EO7W3eIKq-4" value="" style="endArrow=none;dashed=1;html=1;dashPattern=1 3;strokeWidth=2;rounded=0;" parent="1" edge="1">
          <mxGeometry width="50" height="50" relative="1" as="geometry">
            <mxPoint x="827" y="797" as="sourcePoint" />
            <mxPoint x="827" y="7" as="targetPoint" />
          </mxGeometry>
        </mxCell>
        <mxCell id="NI60vL5AaP7EO7W3eIKq-7" value="" style="rounded=0;whiteSpace=wrap;html=1;" parent="1" vertex="1">
          <mxGeometry x="827" y="990" width="823" height="510" as="geometry" />
        </mxCell>
        <mxCell id="NI60vL5AaP7EO7W3eIKq-8" value="" style="rounded=0;whiteSpace=wrap;html=1;" parent="1" vertex="1">
          <mxGeometry x="1050" y="1090" width="390" height="380" as="geometry" />
        </mxCell>
        <mxCell id="NI60vL5AaP7EO7W3eIKq-10" value="방 목록" style="rounded=0;whiteSpace=wrap;html=1;" parent="1" vertex="1">
          <mxGeometry x="850" y="1090" width="170" height="380" as="geometry" />
        </mxCell>
        <mxCell id="NI60vL5AaP7EO7W3eIKq-11" value="" style="rounded=0;whiteSpace=wrap;html=1;" parent="1" vertex="1">
          <mxGeometry x="1460" y="1090" width="170" height="380" as="geometry" />
        </mxCell>
        <mxCell id="NI60vL5AaP7EO7W3eIKq-12" value="PlayYard" style="rounded=1;whiteSpace=wrap;html=1;" parent="1" vertex="1">
          <mxGeometry x="1110" y="1010" width="250" height="60" as="geometry" />
        </mxCell>
        <mxCell id="NI60vL5AaP7EO7W3eIKq-13" value="" style="rounded=0;whiteSpace=wrap;html=1;" parent="1" vertex="1">
          <mxGeometry x="1060" y="1400" width="370" height="60" as="geometry" />
        </mxCell>
        <mxCell id="NI60vL5AaP7EO7W3eIKq-14" value="&lt;font style=&quot;font-size: 29px;&quot;&gt;-&lt;/font&gt;" style="rounded=1;whiteSpace=wrap;html=1;" parent="1" vertex="1">
          <mxGeometry x="1070" y="1410" width="40" height="40" as="geometry" />
        </mxCell>
        <mxCell id="NI60vL5AaP7EO7W3eIKq-15" value="&lt;font style=&quot;font-size: 29px;&quot;&gt;+&lt;/font&gt;" style="rounded=1;whiteSpace=wrap;html=1;" parent="1" vertex="1">
          <mxGeometry x="1160" y="1410" width="40" height="40" as="geometry" />
        </mxCell>
        <mxCell id="NI60vL5AaP7EO7W3eIKq-16" value="" style="whiteSpace=wrap;html=1;aspect=fixed;fontSize=29;" parent="1" vertex="1">
          <mxGeometry x="1116" y="1410" width="40" height="40" as="geometry" />
        </mxCell>
        <mxCell id="NI60vL5AaP7EO7W3eIKq-17" value="똥" style="whiteSpace=wrap;html=1;aspect=fixed;fontSize=29;" parent="1" vertex="1">
          <mxGeometry x="1380" y="1410" width="40" height="40" as="geometry" />
        </mxCell>
        <mxCell id="NI60vL5AaP7EO7W3eIKq-18" value="" style="rounded=0;whiteSpace=wrap;html=1;fontSize=29;" parent="1" vertex="1">
          <mxGeometry x="1470" y="1420" width="150" height="40" as="geometry" />
        </mxCell>
        <mxCell id="NI60vL5AaP7EO7W3eIKq-19" value="" style="rounded=0;whiteSpace=wrap;html=1;fontSize=29;" parent="1" vertex="1">
          <mxGeometry x="1470" y="1100" width="150" height="300" as="geometry" />
        </mxCell>
        <mxCell id="1nU0iJgryQsgc_WQuSYV-8" value="" style="edgeStyle=orthogonalEdgeStyle;rounded=0;orthogonalLoop=1;jettySize=auto;html=1;" parent="1" source="1nU0iJgryQsgc_WQuSYV-4" target="1nU0iJgryQsgc_WQuSYV-7" edge="1">
          <mxGeometry relative="1" as="geometry" />
        </mxCell>
        <mxCell id="eC7-E6hgbhm-13LzCk_F-1" value="사이트 접속" style="rounded=1;whiteSpace=wrap;html=1;arcSize=50;" parent="1" vertex="1">
          <mxGeometry x="1181" y="20" width="120" height="60" as="geometry" />
        </mxCell>
        <mxCell id="1nU0iJgryQsgc_WQuSYV-4" value="socket()" style="rounded=1;whiteSpace=wrap;html=1;arcSize=50;" parent="1" vertex="1">
          <mxGeometry x="354" y="20" width="120" height="60" as="geometry" />
        </mxCell>
        <mxCell id="eC7-E6hgbhm-13LzCk_F-4" value="" style="endArrow=none;html=1;rounded=0;entryX=0.5;entryY=1;entryDx=0;entryDy=0;" parent="1" target="eC7-E6hgbhm-13LzCk_F-1" edge="1">
          <mxGeometry width="50" height="50" relative="1" as="geometry">
            <mxPoint x="1241" y="100" as="sourcePoint" />
            <mxPoint x="1280" y="130" as="targetPoint" />
          </mxGeometry>
        </mxCell>
        <mxCell id="1nU0iJgryQsgc_WQuSYV-10" value="" style="edgeStyle=orthogonalEdgeStyle;rounded=0;orthogonalLoop=1;jettySize=auto;html=1;" parent="1" source="1nU0iJgryQsgc_WQuSYV-7" target="1nU0iJgryQsgc_WQuSYV-9" edge="1">
          <mxGeometry relative="1" as="geometry" />
        </mxCell>
        <mxCell id="eC7-E6hgbhm-13LzCk_F-7" value="방 입장?" style="rhombus;whiteSpace=wrap;html=1;" parent="1" vertex="1">
          <mxGeometry x="1182" y="100" width="118" height="60" as="geometry" />
        </mxCell>
        <mxCell id="1nU0iJgryQsgc_WQuSYV-7" value="Listen" style="rounded=1;whiteSpace=wrap;html=1;arcSize=0;" parent="1" vertex="1">
          <mxGeometry x="354" y="110" width="120" height="50" as="geometry" />
        </mxCell>
        <mxCell id="eC7-E6hgbhm-13LzCk_F-8" value="" style="endArrow=classic;html=1;rounded=0;exitX=0;exitY=0.5;exitDx=0;exitDy=0;entryX=0.5;entryY=0;entryDx=0;entryDy=0;" parent="1" source="eC7-E6hgbhm-13LzCk_F-7" target="eC7-E6hgbhm-13LzCk_F-11" edge="1">
          <mxGeometry width="50" height="50" relative="1" as="geometry">
            <mxPoint x="1230" y="260" as="sourcePoint" />
            <mxPoint x="1240" y="200" as="targetPoint" />
            <Array as="points">
              <mxPoint x="1110" y="130" />
            </Array>
          </mxGeometry>
        </mxCell>
        <mxCell id="1nU0iJgryQsgc_WQuSYV-14" value="" style="edgeStyle=orthogonalEdgeStyle;rounded=0;orthogonalLoop=1;jettySize=auto;html=1;" parent="1" source="1nU0iJgryQsgc_WQuSYV-9" target="1nU0iJgryQsgc_WQuSYV-13" edge="1">
          <mxGeometry relative="1" as="geometry" />
        </mxCell>
        <mxCell id="1nU0iJgryQsgc_WQuSYV-9" value="Accept" style="whiteSpace=wrap;html=1;rounded=1;arcSize=0;" parent="1" vertex="1">
          <mxGeometry x="354" y="190" width="120" height="50" as="geometry" />
        </mxCell>
        <mxCell id="eC7-E6hgbhm-13LzCk_F-11" value="JoinRoom&lt;br&gt;요청" style="rounded=0;whiteSpace=wrap;html=1;" parent="1" vertex="1">
          <mxGeometry x="1050" y="200" width="118" height="50" as="geometry" />
        </mxCell>
        <mxCell id="1nU0iJgryQsgc_WQuSYV-11" value="" style="endArrow=classic;html=1;rounded=0;entryX=1;entryY=0.5;entryDx=0;entryDy=0;" parent="1" target="1nU0iJgryQsgc_WQuSYV-9" edge="1">
          <mxGeometry width="50" height="50" relative="1" as="geometry">
            <mxPoint x="680" y="215" as="sourcePoint" />
            <mxPoint x="420" y="260" as="targetPoint" />
          </mxGeometry>
        </mxCell>
        <mxCell id="eC7-E6hgbhm-13LzCk_F-14" value="Yes" style="text;strokeColor=none;fillColor=none;align=left;verticalAlign=middle;spacingLeft=4;spacingRight=4;overflow=hidden;points=[[0,0.5],[1,0.5]];portConstraint=eastwest;rotatable=0;" parent="1" vertex="1">
          <mxGeometry x="1151" y="100" width="30" height="30" as="geometry" />
        </mxCell>
        <mxCell id="eC7-E6hgbhm-13LzCk_F-15" value="No" style="text;html=1;strokeColor=none;fillColor=none;align=center;verticalAlign=middle;whiteSpace=wrap;rounded=0;" parent="1" vertex="1">
          <mxGeometry x="1290" y="305" width="30" height="30" as="geometry" />
        </mxCell>
        <mxCell id="1nU0iJgryQsgc_WQuSYV-34" value="" style="edgeStyle=orthogonalEdgeStyle;rounded=0;orthogonalLoop=1;jettySize=auto;html=1;" parent="1" source="1nU0iJgryQsgc_WQuSYV-13" target="1nU0iJgryQsgc_WQuSYV-33" edge="1">
          <mxGeometry relative="1" as="geometry" />
        </mxCell>
        <mxCell id="1nU0iJgryQsgc_WQuSYV-13" value="Read" style="whiteSpace=wrap;html=1;rounded=1;arcSize=0;" parent="1" vertex="1">
          <mxGeometry x="354" y="270" width="120" height="50" as="geometry" />
        </mxCell>
        <mxCell id="1nU0iJgryQsgc_WQuSYV-15" value="" style="endArrow=classic;html=1;rounded=0;entryX=1;entryY=0.5;entryDx=0;entryDy=0;" parent="1" target="1nU0iJgryQsgc_WQuSYV-13" edge="1">
          <mxGeometry width="50" height="50" relative="1" as="geometry">
            <mxPoint x="800" y="295" as="sourcePoint" />
            <mxPoint x="420" y="260" as="targetPoint" />
          </mxGeometry>
        </mxCell>
        <mxCell id="1nU0iJgryQsgc_WQuSYV-19" value="Send Request" style="swimlane;fontStyle=0;childLayout=stackLayout;horizontal=1;startSize=20;horizontalStack=0;resizeParent=1;resizeParentMax=0;resizeLast=0;collapsible=1;marginBottom=0;" parent="1" vertex="1">
          <mxGeometry x="590" y="300" width="140" height="140" as="geometry">
            <mxRectangle x="590" y="300" width="100" height="30" as="alternateBounds" />
          </mxGeometry>
        </mxCell>
        <mxCell id="1nU0iJgryQsgc_WQuSYV-20" value="방 입장 " style="text;strokeColor=none;fillColor=none;align=left;verticalAlign=middle;spacingLeft=4;spacingRight=4;overflow=hidden;points=[[0,0.5],[1,0.5]];portConstraint=eastwest;rotatable=0;" parent="1nU0iJgryQsgc_WQuSYV-19" vertex="1">
          <mxGeometry y="20" width="140" height="30" as="geometry" />
        </mxCell>
        <mxCell id="1nU0iJgryQsgc_WQuSYV-21" value="채팅 입력" style="text;strokeColor=none;fillColor=none;align=left;verticalAlign=middle;spacingLeft=4;spacingRight=4;overflow=hidden;points=[[0,0.5],[1,0.5]];portConstraint=eastwest;rotatable=0;" parent="1nU0iJgryQsgc_WQuSYV-19" vertex="1">
          <mxGeometry y="50" width="140" height="30" as="geometry" />
        </mxCell>
        <mxCell id="1nU0iJgryQsgc_WQuSYV-22" value="그림 좌표" style="text;strokeColor=none;fillColor=none;align=left;verticalAlign=middle;spacingLeft=4;spacingRight=4;overflow=hidden;points=[[0,0.5],[1,0.5]];portConstraint=eastwest;rotatable=0;" parent="1nU0iJgryQsgc_WQuSYV-19" vertex="1">
          <mxGeometry y="80" width="140" height="30" as="geometry" />
        </mxCell>
        <mxCell id="oTNRiP5fQweXEvbs2F6G-1" value="사이트 접속 해제" style="text;strokeColor=none;fillColor=none;align=left;verticalAlign=middle;spacingLeft=4;spacingRight=4;overflow=hidden;points=[[0,0.5],[1,0.5]];portConstraint=eastwest;rotatable=0;" parent="1nU0iJgryQsgc_WQuSYV-19" vertex="1">
          <mxGeometry y="110" width="140" height="30" as="geometry" />
        </mxCell>
        <mxCell id="1nU0iJgryQsgc_WQuSYV-37" value="" style="edgeStyle=orthogonalEdgeStyle;rounded=0;orthogonalLoop=1;jettySize=auto;html=1;" parent="1" source="1nU0iJgryQsgc_WQuSYV-33" target="1nU0iJgryQsgc_WQuSYV-36" edge="1">
          <mxGeometry relative="1" as="geometry" />
        </mxCell>
        <mxCell id="1nU0iJgryQsgc_WQuSYV-40" value="" style="edgeStyle=orthogonalEdgeStyle;rounded=0;orthogonalLoop=1;jettySize=auto;html=1;" parent="1" source="1nU0iJgryQsgc_WQuSYV-33" target="1nU0iJgryQsgc_WQuSYV-39" edge="1">
          <mxGeometry relative="1" as="geometry" />
        </mxCell>
        <mxCell id="1nU0iJgryQsgc_WQuSYV-33" value="방 입장?" style="rhombus;whiteSpace=wrap;html=1;rounded=1;arcSize=0;" parent="1" vertex="1">
          <mxGeometry x="359" y="350" width="110" height="60" as="geometry" />
        </mxCell>
        <mxCell id="z7oYP6aFVALT8as85rb3-2" value="" style="endArrow=classic;html=1;rounded=0;exitX=1;exitY=0.5;exitDx=0;exitDy=0;entryX=0.5;entryY=0;entryDx=0;entryDy=0;" parent="1" source="eC7-E6hgbhm-13LzCk_F-7" target="z7oYP6aFVALT8as85rb3-3" edge="1">
          <mxGeometry width="50" height="50" relative="1" as="geometry">
            <mxPoint x="1251" y="170" as="sourcePoint" />
            <mxPoint x="1340" y="130" as="targetPoint" />
            <Array as="points">
              <mxPoint x="1370" y="130" />
            </Array>
          </mxGeometry>
        </mxCell>
        <mxCell id="1nU0iJgryQsgc_WQuSYV-35" value="클라이언트&lt;br&gt;연결 요청" style="rounded=0;whiteSpace=wrap;html=1;" parent="1" vertex="1">
          <mxGeometry x="680" y="190" width="120" height="50" as="geometry" />
        </mxCell>
        <mxCell id="z7oYP6aFVALT8as85rb3-3" value="요청 X" style="rounded=0;whiteSpace=wrap;html=1;" parent="1" vertex="1">
          <mxGeometry x="1320" y="200" width="100" height="50" as="geometry" />
        </mxCell>
        <mxCell id="1nU0iJgryQsgc_WQuSYV-36" value="room leave&lt;br&gt;room join" style="whiteSpace=wrap;html=1;rounded=1;arcSize=0;" parent="1" vertex="1">
          <mxGeometry x="164" y="350" width="120" height="60" as="geometry" />
        </mxCell>
        <mxCell id="z7oYP6aFVALT8as85rb3-6" value="채팅 입력?" style="rhombus;whiteSpace=wrap;html=1;" parent="1" vertex="1">
          <mxGeometry x="1181" y="305" width="118" height="60" as="geometry" />
        </mxCell>
        <mxCell id="1nU0iJgryQsgc_WQuSYV-38" value="yes" style="text;strokeColor=none;fillColor=none;align=left;verticalAlign=middle;spacingLeft=4;spacingRight=4;overflow=hidden;points=[[0,0.5],[1,0.5]];portConstraint=eastwest;rotatable=0;" parent="1" vertex="1">
          <mxGeometry x="284" y="350" width="80" height="30" as="geometry" />
        </mxCell>
        <mxCell id="z7oYP6aFVALT8as85rb3-7" value="" style="endArrow=classic;html=1;rounded=0;exitX=1;exitY=0.5;exitDx=0;exitDy=0;" parent="1" source="z7oYP6aFVALT8as85rb3-6" edge="1">
          <mxGeometry width="50" height="50" relative="1" as="geometry">
            <mxPoint x="1310" y="165" as="sourcePoint" />
            <mxPoint x="1370" y="405" as="targetPoint" />
            <Array as="points">
              <mxPoint x="1370" y="335" />
            </Array>
          </mxGeometry>
        </mxCell>
        <mxCell id="1nU0iJgryQsgc_WQuSYV-43" value="" style="edgeStyle=orthogonalEdgeStyle;rounded=0;orthogonalLoop=1;jettySize=auto;html=1;" parent="1" source="1nU0iJgryQsgc_WQuSYV-39" target="1nU0iJgryQsgc_WQuSYV-42" edge="1">
          <mxGeometry relative="1" as="geometry" />
        </mxCell>
        <mxCell id="z7oYP6aFVALT8as85rb3-8" value="" style="endArrow=classic;html=1;rounded=0;exitX=0;exitY=0.5;exitDx=0;exitDy=0;" parent="1" edge="1">
          <mxGeometry width="50" height="50" relative="1" as="geometry">
            <mxPoint x="1182" y="335" as="sourcePoint" />
            <mxPoint x="1110" y="405" as="targetPoint" />
            <Array as="points">
              <mxPoint x="1110" y="335" />
            </Array>
          </mxGeometry>
        </mxCell>
        <mxCell id="1nU0iJgryQsgc_WQuSYV-54" value="" style="edgeStyle=orthogonalEdgeStyle;rounded=0;orthogonalLoop=1;jettySize=auto;html=1;" parent="1" source="1nU0iJgryQsgc_WQuSYV-39" target="1nU0iJgryQsgc_WQuSYV-53" edge="1">
          <mxGeometry relative="1" as="geometry" />
        </mxCell>
        <mxCell id="z7oYP6aFVALT8as85rb3-9" value="" style="endArrow=none;html=1;rounded=0;exitX=0.5;exitY=1;exitDx=0;exitDy=0;" parent="1" source="eC7-E6hgbhm-13LzCk_F-11" edge="1">
          <mxGeometry width="50" height="50" relative="1" as="geometry">
            <mxPoint x="1092" y="272" as="sourcePoint" />
            <mxPoint x="1240" y="280" as="targetPoint" />
            <Array as="points">
              <mxPoint x="1110" y="280" />
            </Array>
          </mxGeometry>
        </mxCell>
        <mxCell id="1nU0iJgryQsgc_WQuSYV-39" value="채팅 입력?" style="rhombus;whiteSpace=wrap;html=1;rounded=1;arcSize=0;" parent="1" vertex="1">
          <mxGeometry x="359" y="440" width="110" height="60" as="geometry" />
        </mxCell>
        <mxCell id="z7oYP6aFVALT8as85rb3-10" value="" style="endArrow=classic;html=1;rounded=0;entryX=0.5;entryY=0;entryDx=0;entryDy=0;" parent="1" target="z7oYP6aFVALT8as85rb3-6" edge="1">
          <mxGeometry width="50" height="50" relative="1" as="geometry">
            <mxPoint x="1240" y="280" as="sourcePoint" />
            <mxPoint x="1170" y="218" as="targetPoint" />
          </mxGeometry>
        </mxCell>
        <mxCell id="1nU0iJgryQsgc_WQuSYV-41" value="no" style="text;strokeColor=none;fillColor=none;align=left;verticalAlign=middle;spacingLeft=4;spacingRight=4;overflow=hidden;points=[[0,0.5],[1,0.5]];portConstraint=eastwest;rotatable=0;" parent="1" vertex="1">
          <mxGeometry x="414" y="410" width="80" height="30" as="geometry" />
        </mxCell>
        <mxCell id="1nU0iJgryQsgc_WQuSYV-45" value="" style="edgeStyle=orthogonalEdgeStyle;rounded=0;orthogonalLoop=1;jettySize=auto;html=1;" parent="1" source="1nU0iJgryQsgc_WQuSYV-42" target="1nU0iJgryQsgc_WQuSYV-44" edge="1">
          <mxGeometry relative="1" as="geometry" />
        </mxCell>
        <mxCell id="1nU0iJgryQsgc_WQuSYV-56" value="" style="edgeStyle=orthogonalEdgeStyle;rounded=0;orthogonalLoop=1;jettySize=auto;html=1;" parent="1" source="1nU0iJgryQsgc_WQuSYV-42" target="1nU0iJgryQsgc_WQuSYV-55" edge="1">
          <mxGeometry relative="1" as="geometry" />
        </mxCell>
        <mxCell id="1nU0iJgryQsgc_WQuSYV-42" value="그림 좌표?" style="rhombus;whiteSpace=wrap;html=1;rounded=1;arcSize=0;" parent="1" vertex="1">
          <mxGeometry x="359" y="525" width="110" height="60" as="geometry" />
        </mxCell>
        <mxCell id="1nU0iJgryQsgc_WQuSYV-49" value="" style="edgeStyle=orthogonalEdgeStyle;rounded=0;orthogonalLoop=1;jettySize=auto;html=1;" parent="1" source="1nU0iJgryQsgc_WQuSYV-44" target="1nU0iJgryQsgc_WQuSYV-48" edge="1">
          <mxGeometry relative="1" as="geometry" />
        </mxCell>
        <mxCell id="1nU0iJgryQsgc_WQuSYV-44" value="사이트&amp;nbsp;&lt;br&gt;접속 해제?" style="rhombus;whiteSpace=wrap;html=1;rounded=1;arcSize=0;" parent="1" vertex="1">
          <mxGeometry x="359" y="610" width="110" height="60" as="geometry" />
        </mxCell>
        <mxCell id="1nU0iJgryQsgc_WQuSYV-46" value="no" style="text;strokeColor=none;fillColor=none;align=left;verticalAlign=middle;spacingLeft=4;spacingRight=4;overflow=hidden;points=[[0,0.5],[1,0.5]];portConstraint=eastwest;rotatable=0;" parent="1" vertex="1">
          <mxGeometry x="414" y="495" width="80" height="30" as="geometry" />
        </mxCell>
        <mxCell id="1nU0iJgryQsgc_WQuSYV-47" value="no" style="text;strokeColor=none;fillColor=none;align=left;verticalAlign=middle;spacingLeft=4;spacingRight=4;overflow=hidden;points=[[0,0.5],[1,0.5]];portConstraint=eastwest;rotatable=0;" parent="1" vertex="1">
          <mxGeometry x="414" y="580" width="80" height="30" as="geometry" />
        </mxCell>
        <mxCell id="1nU0iJgryQsgc_WQuSYV-48" value="room leave&lt;br&gt;disconnect" style="whiteSpace=wrap;html=1;rounded=1;arcSize=50;" parent="1" vertex="1">
          <mxGeometry x="354" y="700" width="120" height="50" as="geometry" />
        </mxCell>
        <mxCell id="1nU0iJgryQsgc_WQuSYV-50" value="" style="endArrow=classic;html=1;rounded=0;exitX=0;exitY=0.5;exitDx=0;exitDy=0;entryX=0;entryY=0.5;entryDx=0;entryDy=0;" parent="1" source="1nU0iJgryQsgc_WQuSYV-44" target="1nU0iJgryQsgc_WQuSYV-13" edge="1">
          <mxGeometry width="50" height="50" relative="1" as="geometry">
            <mxPoint x="370" y="520" as="sourcePoint" />
            <mxPoint x="120" y="290" as="targetPoint" />
            <Array as="points">
              <mxPoint x="120" y="640" />
              <mxPoint x="120" y="295" />
            </Array>
          </mxGeometry>
        </mxCell>
        <mxCell id="1nU0iJgryQsgc_WQuSYV-51" value="no" style="text;strokeColor=none;fillColor=none;align=left;verticalAlign=middle;spacingLeft=4;spacingRight=4;overflow=hidden;points=[[0,0.5],[1,0.5]];portConstraint=eastwest;rotatable=0;" parent="1" vertex="1">
          <mxGeometry x="334" y="610" width="80" height="30" as="geometry" />
        </mxCell>
        <mxCell id="1nU0iJgryQsgc_WQuSYV-52" value="yes" style="text;strokeColor=none;fillColor=none;align=left;verticalAlign=middle;spacingLeft=4;spacingRight=4;overflow=hidden;points=[[0,0.5],[1,0.5]];portConstraint=eastwest;rotatable=0;" parent="1" vertex="1">
          <mxGeometry x="414" y="660" width="80" height="30" as="geometry" />
        </mxCell>
        <mxCell id="1nU0iJgryQsgc_WQuSYV-53" value="방 사람들에게&amp;nbsp;&lt;br&gt;채팅 데이터 전송" style="whiteSpace=wrap;html=1;rounded=1;arcSize=0;" parent="1" vertex="1">
          <mxGeometry x="164" y="440" width="120" height="60" as="geometry" />
        </mxCell>
        <mxCell id="1nU0iJgryQsgc_WQuSYV-55" value="방 사람들에게&amp;nbsp;&lt;br&gt;좌표 데이터 전송" style="whiteSpace=wrap;html=1;rounded=1;arcSize=0;" parent="1" vertex="1">
          <mxGeometry x="164" y="525" width="120" height="60" as="geometry" />
        </mxCell>
        <mxCell id="1nU0iJgryQsgc_WQuSYV-57" value="yes" style="text;strokeColor=none;fillColor=none;align=left;verticalAlign=middle;spacingLeft=4;spacingRight=4;overflow=hidden;points=[[0,0.5],[1,0.5]];portConstraint=eastwest;rotatable=0;" parent="1" vertex="1">
          <mxGeometry x="284" y="440" width="80" height="30" as="geometry" />
        </mxCell>
        <mxCell id="1nU0iJgryQsgc_WQuSYV-58" value="yes" style="text;strokeColor=none;fillColor=none;align=left;verticalAlign=middle;spacingLeft=4;spacingRight=4;overflow=hidden;points=[[0,0.5],[1,0.5]];portConstraint=eastwest;rotatable=0;" parent="1" vertex="1">
          <mxGeometry x="284" y="525" width="80" height="30" as="geometry" />
        </mxCell>
        <mxCell id="z7oYP6aFVALT8as85rb3-12" value="ChatMessage&lt;br&gt;요청" style="rounded=0;whiteSpace=wrap;html=1;" parent="1" vertex="1">
          <mxGeometry x="1050" y="410" width="118" height="50" as="geometry" />
        </mxCell>
        <mxCell id="gKPgeCyqO32LE-ZK3pid-1" value="Send Response" style="text;strokeColor=none;fillColor=none;align=left;verticalAlign=middle;spacingLeft=4;spacingRight=4;overflow=hidden;points=[[0,0.5],[1,0.5]];portConstraint=eastwest;rotatable=0;" parent="1" vertex="1">
          <mxGeometry x="171" y="310" width="106" height="30" as="geometry" />
        </mxCell>
        <mxCell id="z7oYP6aFVALT8as85rb3-13" value="요청 X" style="rounded=0;whiteSpace=wrap;html=1;" parent="1" vertex="1">
          <mxGeometry x="1320" y="410" width="100" height="50" as="geometry" />
        </mxCell>
        <mxCell id="gKPgeCyqO32LE-ZK3pid-3" value="" style="endArrow=none;dashed=1;html=1;dashPattern=1 3;strokeWidth=2;rounded=0;entryX=1;entryY=0.5;entryDx=0;entryDy=0;exitX=0;exitY=0.5;exitDx=0;exitDy=0;" parent="1" source="gKPgeCyqO32LE-ZK3pid-1" target="gKPgeCyqO32LE-ZK3pid-1" edge="1">
          <mxGeometry width="50" height="50" relative="1" as="geometry">
            <mxPoint x="320" y="600" as="sourcePoint" />
            <mxPoint x="320" y="360" as="targetPoint" />
            <Array as="points">
              <mxPoint x="140" y="325" />
              <mxPoint x="140" y="600" />
              <mxPoint x="320" y="600" />
              <mxPoint x="320" y="325" />
            </Array>
          </mxGeometry>
        </mxCell>
        <mxCell id="z7oYP6aFVALT8as85rb3-14" value="Yes" style="text;strokeColor=none;fillColor=none;align=left;verticalAlign=middle;spacingLeft=4;spacingRight=4;overflow=hidden;points=[[0,0.5],[1,0.5]];portConstraint=eastwest;rotatable=0;" parent="1" vertex="1">
          <mxGeometry x="1151" y="305" width="30" height="30" as="geometry" />
        </mxCell>
        <mxCell id="z7oYP6aFVALT8as85rb3-15" value="No" style="text;html=1;strokeColor=none;fillColor=none;align=center;verticalAlign=middle;whiteSpace=wrap;rounded=0;" parent="1" vertex="1">
          <mxGeometry x="1290" y="515" width="30" height="30" as="geometry" />
        </mxCell>
        <mxCell id="z7oYP6aFVALT8as85rb3-16" value="좌표 전송" style="rhombus;whiteSpace=wrap;html=1;" parent="1" vertex="1">
          <mxGeometry x="1181" y="515" width="118" height="60" as="geometry" />
        </mxCell>
        <mxCell id="z7oYP6aFVALT8as85rb3-17" value="" style="endArrow=classic;html=1;rounded=0;exitX=1;exitY=0.5;exitDx=0;exitDy=0;" parent="1" source="z7oYP6aFVALT8as85rb3-16" edge="1">
          <mxGeometry width="50" height="50" relative="1" as="geometry">
            <mxPoint x="1310" y="375" as="sourcePoint" />
            <mxPoint x="1370" y="615" as="targetPoint" />
            <Array as="points">
              <mxPoint x="1370" y="545" />
            </Array>
          </mxGeometry>
        </mxCell>
        <mxCell id="z7oYP6aFVALT8as85rb3-18" value="" style="endArrow=classic;html=1;rounded=0;exitX=0;exitY=0.5;exitDx=0;exitDy=0;" parent="1" edge="1">
          <mxGeometry width="50" height="50" relative="1" as="geometry">
            <mxPoint x="1182" y="545" as="sourcePoint" />
            <mxPoint x="1110" y="615" as="targetPoint" />
            <Array as="points">
              <mxPoint x="1110" y="545" />
            </Array>
          </mxGeometry>
        </mxCell>
        <mxCell id="z7oYP6aFVALT8as85rb3-19" value="" style="endArrow=none;html=1;rounded=0;exitX=0.5;exitY=1;exitDx=0;exitDy=0;" parent="1" edge="1">
          <mxGeometry width="50" height="50" relative="1" as="geometry">
            <mxPoint x="1109" y="460" as="sourcePoint" />
            <mxPoint x="1240" y="490" as="targetPoint" />
            <Array as="points">
              <mxPoint x="1110" y="490" />
            </Array>
          </mxGeometry>
        </mxCell>
        <mxCell id="z7oYP6aFVALT8as85rb3-20" value="" style="endArrow=classic;html=1;rounded=0;entryX=0.5;entryY=0;entryDx=0;entryDy=0;" parent="1" target="z7oYP6aFVALT8as85rb3-16" edge="1">
          <mxGeometry width="50" height="50" relative="1" as="geometry">
            <mxPoint x="1240" y="490" as="sourcePoint" />
            <mxPoint x="1170" y="428" as="targetPoint" />
          </mxGeometry>
        </mxCell>
        <mxCell id="z7oYP6aFVALT8as85rb3-21" value="ChatMessage&lt;br&gt;요청" style="rounded=0;whiteSpace=wrap;html=1;" parent="1" vertex="1">
          <mxGeometry x="1050" y="620" width="118" height="50" as="geometry" />
        </mxCell>
        <mxCell id="z7oYP6aFVALT8as85rb3-22" value="요청 X" style="rounded=0;whiteSpace=wrap;html=1;" parent="1" vertex="1">
          <mxGeometry x="1320" y="620" width="100" height="50" as="geometry" />
        </mxCell>
        <mxCell id="z7oYP6aFVALT8as85rb3-23" value="Yes" style="text;strokeColor=none;fillColor=none;align=left;verticalAlign=middle;spacingLeft=4;spacingRight=4;overflow=hidden;points=[[0,0.5],[1,0.5]];portConstraint=eastwest;rotatable=0;" parent="1" vertex="1">
          <mxGeometry x="1151" y="515" width="30" height="30" as="geometry" />
        </mxCell>
        <mxCell id="z7oYP6aFVALT8as85rb3-24" value="" style="endArrow=none;html=1;rounded=0;exitX=0.5;exitY=1;exitDx=0;exitDy=0;" parent="1" edge="1">
          <mxGeometry width="50" height="50" relative="1" as="geometry">
            <mxPoint x="1370" y="250" as="sourcePoint" />
            <mxPoint x="1500" y="90" as="targetPoint" />
            <Array as="points">
              <mxPoint x="1370" y="280" />
              <mxPoint x="1500" y="280" />
            </Array>
          </mxGeometry>
        </mxCell>
        <mxCell id="z7oYP6aFVALT8as85rb3-25" value="" style="endArrow=classic;html=1;rounded=0;" parent="1" edge="1">
          <mxGeometry width="50" height="50" relative="1" as="geometry">
            <mxPoint x="1500" y="90" as="sourcePoint" />
            <mxPoint x="1240" y="90" as="targetPoint" />
          </mxGeometry>
        </mxCell>
        <mxCell id="z7oYP6aFVALT8as85rb3-26" value="" style="endArrow=none;html=1;rounded=0;exitX=0.5;exitY=1;exitDx=0;exitDy=0;" parent="1" edge="1">
          <mxGeometry width="50" height="50" relative="1" as="geometry">
            <mxPoint x="1370" y="460" as="sourcePoint" />
            <mxPoint x="1500" y="280" as="targetPoint" />
            <Array as="points">
              <mxPoint x="1370" y="490" />
              <mxPoint x="1500" y="490" />
            </Array>
          </mxGeometry>
        </mxCell>
        <mxCell id="z7oYP6aFVALT8as85rb3-28" value="" style="endArrow=none;html=1;rounded=0;exitX=0.5;exitY=1;exitDx=0;exitDy=0;" parent="1" edge="1">
          <mxGeometry width="50" height="50" relative="1" as="geometry">
            <mxPoint x="1370" y="670" as="sourcePoint" />
            <mxPoint x="1500" y="490" as="targetPoint" />
            <Array as="points">
              <mxPoint x="1370" y="700" />
              <mxPoint x="1500" y="700" />
            </Array>
          </mxGeometry>
        </mxCell>
        <mxCell id="qKVwqHsVLVD9TO6cELRV-1" value="" style="endArrow=none;html=1;rounded=0;exitX=0;exitY=0.5;exitDx=0;exitDy=0;" edge="1" parent="1" source="1nU0iJgryQsgc_WQuSYV-36">
          <mxGeometry width="50" height="50" relative="1" as="geometry">
            <mxPoint x="370" y="410" as="sourcePoint" />
            <mxPoint x="120" y="380" as="targetPoint" />
          </mxGeometry>
        </mxCell>
        <mxCell id="qKVwqHsVLVD9TO6cELRV-2" value="" style="endArrow=none;html=1;rounded=0;exitX=0;exitY=0.5;exitDx=0;exitDy=0;" edge="1" parent="1">
          <mxGeometry width="50" height="50" relative="1" as="geometry">
            <mxPoint x="164" y="555" as="sourcePoint" />
            <mxPoint x="120" y="555" as="targetPoint" />
          </mxGeometry>
        </mxCell>
        <mxCell id="qKVwqHsVLVD9TO6cELRV-3" value="" style="endArrow=none;html=1;rounded=0;exitX=0;exitY=0.5;exitDx=0;exitDy=0;" edge="1" parent="1">
          <mxGeometry width="50" height="50" relative="1" as="geometry">
            <mxPoint x="164" y="470" as="sourcePoint" />
            <mxPoint x="120" y="470" as="targetPoint" />
          </mxGeometry>
        </mxCell>
      </root>
    </mxGraphModel>
  </diagram>
</mxfile>
